<svg version="1.1" id="Logo-Linkedin--Streamline-Carbon" xmlns="http://www.w3.org/2000/svg" xmlns:xlink="http://www.w3.org/1999/xlink" x="0" y="0" viewBox="0 0 16 16" xml:space="preserve" enable-background="new 0 0 32 32" height="16" width="16" style="background-color: #5093e2">
  <desc>
    Logo Linkedin Streamline Icon: https://streamlinehq.com
  </desc>
  <path d="M13.1 2H2.9C2.4 2 2 2.4 2 2.85v10.25c0 0.45 0.4 0.85 0.9 0.85h10.2c0.5 0 0.9 -0.4 0.9 -0.85V2.85c0 -0.45 -0.4 -0.85 -0.9 -0.85zM5.55 12.2H3.8V6.5h1.75v5.7zm-0.85 -6.5c-0.55 0 -1.05 -0.45 -1.05 -1.05 0 -0.6 0.45 -1.05 1.05 -1.05 0.55 0 1.05 0.45 1.05 1.05s-0.5 1.05 -1.05 1.05zm7.55 6.45H10.5v-2.8c0 -0.65 0 -1.55 -0.95 -1.55S8.5 8.55 8.5 9.25v2.85h-1.75V6.5h1.65v0.75h0.05c0.25 -0.45 0.85 -0.95 1.7 -0.95 1.8 0 2.15 1.2 2.15 2.75v3.1z" fill="#ffffff" stroke-width="0.5"></path>
  <path id="_x3C_Transparent_Rectangle_x3E_" d="M0 0h16v16H0Z" fill="none" stroke-width="0.5"></path>
</svg>